<svg width="114" height="106" viewBox="0 0 114 106" fill="none" xmlns="http://www.w3.org/2000/svg">
    <path d="M10.7802 78.6001C5.39569 69.2739 2.70345 64.6108 1.64969 59.6533C0.717326 55.2668 0.717326 50.7334 1.64969 46.3469C2.70345 41.3894 5.39569 36.7263 10.7802 27.4001L11.7198 25.7725C17.1043 16.4464 19.7965 11.7833 23.563 8.39191C26.8956 5.39123 30.8217 3.12451 35.0867 1.73874C39.9069 0.172546 45.2914 0.172546 56.0603 0.172546H57.9397C68.7086 0.172546 74.0931 0.172546 78.9133 1.73874C83.1783 3.12451 87.1044 5.39123 90.437 8.39191C94.2035 11.7833 96.8957 16.4464 102.28 25.7725L103.22 27.4001C108.604 36.7263 111.297 41.3894 112.35 46.3469C113.283 50.7334 113.283 55.2668 112.35 59.6533C111.297 64.6108 108.604 69.2739 103.22 78.6001L102.28 80.2276C96.8957 89.5538 94.2035 94.2169 90.437 97.6083C87.1044 100.609 83.1783 102.876 78.9133 104.261C74.0931 105.828 68.7086 105.828 57.9397 105.828H56.0603C45.2914 105.828 39.9069 105.828 35.0867 104.261C30.8217 102.876 26.8956 100.609 23.563 97.6083C19.7965 94.2169 17.1043 89.5538 11.7198 80.2276L10.7802 78.6001Z" fill="white"/>
</svg>
