<?xml version="1.0" encoding="UTF-8"?>
<svg xmlns:xlink="http://www.w3.org/1999/xlink" width="1125px" height="520px" viewBox="0 0 1125 520" version="1.1"
     xmlns="http://www.w3.org/2000/svg">
    <!-- Generator: Sketch 48.1 (47250) - http://www.bohemiancoding.com/sketch -->
    <title>08</title>
    <desc>Created with Sketch.</desc>
    <defs>
        <polygon id="path-1" points="0 0 1125 0 1125 239.594282 0 239.594282"></polygon>
    </defs>
    <g id="Page-1" stroke="none" stroke-width="1" fill="none" fill-rule="evenodd">
        <g id="08">
            <polygon id="Fill-1" fill="#E4E4E4" points="0 520 1125 520 1125 0 0 0"></polygon>
            <g id="Group-7">
                <path d="M0,0 L0,402.201866 C23.042,402.245 72.6,400.639 141.079,391.156 C239.413,378.298 375.655,349.654 561.693,301.187 C751.868,253.028 904.933,284.632 1000.34,321.455 C1067.027,347.483 1106.494,375.975 1125,391.031 L1125,0 L0,0 Z"
                      id="Fill-2" fill="#D8D8D8"></path>
                <g id="Group-6">
                    <mask id="mask-2" fill="white">
                        <use xlink:href="#path-1"></use>
                    </mask>
                    <g id="Clip-5"></g>
                    <path d="M0,0 L1125.00001,0 L1125,166.597 C1125.054,166.517 924.424,99.221 562.5,203.274 C381.516,255.225 240.787,242.389 145.436,220.446 C50.061,197.899 0.062,166.246 0,166.597 L0,0 Z"
                          id="Fill-4" fill="#CFCFD0" mask="url(#mask-2)"></path>
                </g>
            </g>
        </g>
    </g>
</svg>