<svg width="23" height="15" viewBox="0 0 23 15" fill="none" xmlns="http://www.w3.org/2000/svg">
    <path fill-rule="evenodd" clip-rule="evenodd"
          d="M2.49261 2.22211V4.22211H8.2003V2.22211H2.49261ZM2.38492 0.444336C1.49276 0.444336 0.769531 1.19053 0.769531 2.111V4.33322C0.769531 5.2537 1.49276 5.99989 2.38492 5.99989H8.30799C9.20015 5.99989 9.92338 5.2537 9.92338 4.33322V2.111C9.92338 1.19053 9.20015 0.444336 8.30799 0.444336H2.38492Z"
          fill="white"/>
    <mask id="mask0" mask-type="alpha" maskUnits="userSpaceOnUse" x="3" y="9" width="9" height="5">
        <path d="M3.46191 9.33301H11.0004V13.7775H3.46191V9.33301Z" fill="white"/>
    </mask>
    <g mask="url(#mask0)">
        <path fill-rule="evenodd" clip-rule="evenodd"
              d="M6.6928 10.4446C7.28756 10.4446 7.76972 9.94709 7.76972 9.33344C7.76972 8.71979 7.28756 8.22233 6.6928 8.22233C6.09803 8.22233 5.61587 8.71979 5.61587 9.33344C5.61587 9.94709 6.09803 10.4446 6.6928 10.4446ZM9.3851 9.33344C9.3851 10.8676 8.17972 12.1112 6.6928 12.1112C5.20588 12.1112 4.00049 10.8676 4.00049 9.33344C4.00049 7.79932 5.20588 6.55566 6.6928 6.55566C8.17972 6.55566 9.3851 7.79932 9.3851 9.33344Z"
              fill="white"/>
    </g>
    <path fill-rule="evenodd" clip-rule="evenodd"
          d="M4.55202 5.99946L4.08614 7.28863C3.98118 7.57906 4.18934 7.88835 4.48977 7.88835H11.6955L11.0135 5.99946H4.55202ZM4.10334 4.22168C3.65369 4.22168 3.25137 4.50992 3.09427 4.94461L2.47164 6.66754C1.94686 8.11968 2.98766 9.66613 4.48977 9.66613H12.6258C13.3767 9.66613 13.8971 8.89312 13.635 8.1671L12.4714 4.94488C12.3144 4.51005 11.912 4.22168 11.4623 4.22168H4.10334Z"
          fill="white"/>
    <mask id="mask1" mask-type="alpha" maskUnits="userSpaceOnUse" x="14" y="3" width="9" height="12">
        <path fill-rule="evenodd" clip-rule="evenodd" d="M17.4617 3.77734H22.8463V14.8885H14.231V9.3329H17.4617V3.77734Z" fill="white"/>
    </mask>
    <g mask="url(#mask1)">
        <path fill-rule="evenodd" clip-rule="evenodd"
              d="M18.0004 10.4436C18.5952 10.4436 19.0773 9.94611 19.0773 9.33247C19.0773 8.71882 18.5952 8.22135 18.0004 8.22135C17.4056 8.22135 16.9235 8.71882 16.9235 9.33247C16.9235 9.94611 17.4056 10.4436 18.0004 10.4436ZM20.6927 9.33247C20.6927 10.8666 19.4873 12.1102 18.0004 12.1102C16.5135 12.1102 15.3081 10.8666 15.3081 9.33247C15.3081 7.79834 16.5135 6.55469 18.0004 6.55469C19.4873 6.55469 20.6927 7.79834 20.6927 9.33247Z"
              fill="white"/>
    </g>
    <path fill-rule="evenodd" clip-rule="evenodd"
          d="M17.4618 3.77398C18.056 3.77398 18.2368 3.27702 18.2368 2.66398C18.2368 2.05094 18.056 1.55398 17.4618 1.55398C16.8677 1.55398 15.4873 1.48624 15.4873 2.09928C15.4873 2.71232 16.8677 3.77398 17.4618 3.77398Z"
          fill="white"/>
    <path fill-rule="evenodd" clip-rule="evenodd"
          d="M12.747 1.55588C12.747 1.06496 13.1327 0.666992 13.6085 0.666992H15.308C15.6592 0.666992 15.9753 0.886995 16.1068 1.22303L16.3871 1.93902L18.2423 6.02799C19.0111 7.72253 17.8124 9.66699 15.999 9.66699H7.15255C6.67674 9.66699 6.29102 9.26902 6.29102 8.7781C6.29102 8.28718 6.67674 7.88921 7.15255 7.88921H15.999C16.5509 7.88921 16.9157 7.29742 16.6817 6.78169L14.8167 2.67099C14.8101 2.6565 14.8039 2.64183 14.7981 2.62699L14.7268 2.44477H13.6085C13.1327 2.44477 12.747 2.0468 12.747 1.55588Z"
          fill="white"/>
</svg>