<svg width="849" height="660" viewBox="0 0 849 660" fill="none" xmlns="http://www.w3.org/2000/svg">
    <path opacity="0.5" fill-rule="evenodd" clip-rule="evenodd" d="M608.649 529.113C469.014 682.967 269.962 856.672 135.131 945.537C109.76 962.259 77.4217 949.787 85.8198 919.033C108.632 835.502 202.793 623.654 235.715 534.134C167.993 540.818 110.488 551.499 59.5944 556.125C-4.78257 561.977 -6.42137 520.187 6.20684 485.882C70.5349 311.158 176.033 68.3422 255.759 -94.9502C276.961 -138.374 301.658 -158.509 333.04 -167.868C418.363 -193.323 612.629 -230.179 696.949 -238.661C819.573 -250.996 795.248 -175.798 759.919 -108.172C725.425 -42.1491 653.167 75.62 592.328 169.451C592.328 169.451 711.507 141.952 778.164 141.942C927.992 141.927 825.365 290.329 608.649 529.113Z" fill="#CB3506"/>
</svg>