<svg xmlns="http://www.w3.org/2000/svg" viewBox="0 0 251.69 83.71"><defs><style>.cls-1{fill:#1d1d1b;}.cls-2{fill:#ec6608;}</style></defs><title>Asset 1</title><g id="Layer_2" data-name="Layer 2"><g id="Слой_1" data-name="Слой 1"><path class="cls-1" d="M67.19,28.76a6.7,6.7,0,0,0-.71-1.26h0L62.4,22.09,62.31,22h0a6.6,6.6,0,0,0-1-1c.55-.82,1.06-1.62,1.49-2.38,1.7-3,3.41-6.87,1.56-10.05a5.72,5.72,0,0,0-.64-.88h0L60.17,2.89v0C58.15,0,54.2,0,52.87,0,52.3,0,51.68,0,51,.07A143.7,143.7,0,0,0,23.15,5.39,7,7,0,0,0,19,8.74C13.35,19,4.38,40.87.76,51.33c-.44,1.26-1.59,4.59.26,7.2l4.07,5.41h0A4.84,4.84,0,0,0,9.38,66c-.87,2.18-1.92,5.22-2.44,7.07a5.59,5.59,0,0,0,.77,4.46,25.9,25.9,0,0,0,4,5.09c1.53,1.53,3.45,1.18,5.24.23C23.52,79.38,39.73,69,54.49,52.78,62.46,44,69.36,33.83,67.19,28.76Z"/><path class="cls-2" d="M4.42,51.74C8.17,40.93,16.8,20.09,22.07,10.43a3.38,3.38,0,0,1,2-1.64,144,144,0,0,1,27.18-5.2c7.18-.52,4.12,6.61,2.05,10.56a78.39,78.39,0,0,1-5.92,9.13,18.77,18.77,0,0,1,7-1.4c8.75,0,6.16,8.66-7.85,24.69-9.37,10.72-25.72,22.61-34,27.13a1.37,1.37,0,0,1-1.34,0c-.33-.23-.41-.69-.24-1.33,1.37-4.87,4.76-12,6.69-17.23-4,.39-7.89,1.07-10.87,1.34C3,56.84,3.72,53.76,4.42,51.74Z"/><path class="cls-1" d="M25.4,33.35c-1.63,4.23-2.8,7.41-3.86,10.58,10.18-2.29,14.36-5.3,15.31-8.84S32.91,31,25.4,33.35Z"/><path class="cls-1" d="M32.72,14.79l-.06.17s-1.29,3.13-3.07,7.57c8.82-1.84,11.38-4.25,12-6C42.22,14.93,41.57,11.73,32.72,14.79Z"/><path class="cls-1" d="M95.53,38.67a6.87,6.87,0,0,0,3.7-2.94,9.77,9.77,0,0,0,1.28-4.67,6.42,6.42,0,0,0-1.81-5.22q-1.93-1.77-6-1.77H83.57L76.52,54.87h9.3a17.48,17.48,0,0,0,4.44-.57,11.78,11.78,0,0,0,3.94-1.84,10,10,0,0,0,2.88-3.3,10.85,10.85,0,0,0,1.24-5A7.26,7.26,0,0,0,97.74,41a4,4,0,0,0-2.26-2.15c0-.06,0-.1,0-.11A.17.17,0,0,0,95.53,38.67Zm-4,7.26a5.08,5.08,0,0,1-.85,1.53A4.13,4.13,0,0,1,87.44,49H84.12l1.67-7.26h3.5a2.64,2.64,0,0,1,2,.69,2.47,2.47,0,0,1,.62,1.88A5.52,5.52,0,0,1,91.57,45.93ZM94,33.6a4.25,4.25,0,0,1-.82,1.31,3.92,3.92,0,0,1-1.25.91,3.65,3.65,0,0,1-1.56.33H87.09l1.46-6.24H91.6a3.31,3.31,0,0,1,2.11.53,2,2,0,0,1,.6,1.68A4.4,4.4,0,0,1,94,33.6Zm21.91-9.54H106.3L99.25,54.87h6.33l2.77-12.17H111l2.06,12.17h6.84l-2.61-13.33a10.29,10.29,0,0,0,4.53-3.32,10.54,10.54,0,0,0,2-6.07Q124.17,28,122,26A8.77,8.77,0,0,0,115.91,24.06Zm1.37,10.69a3.49,3.49,0,0,1-1,1.24,4,4,0,0,1-1.46.66,7,7,0,0,1-1.67.2H109.7l1.61-7h3.36a3.72,3.72,0,0,1,2.33.67,2.45,2.45,0,0,1,.71,2.3A4.4,4.4,0,0,1,117.28,34.75Zm28.67-4.18a8.34,8.34,0,0,0-1.34-3.41,7.41,7.41,0,0,0-2.84-2.41,9.55,9.55,0,0,0-4.33-.91,10.83,10.83,0,0,0-4.63.91,10.61,10.61,0,0,0-3.27,2.32,11.92,11.92,0,0,0-2.15,3.17,16.45,16.45,0,0,0-1.18,3.47L123.77,44a12.55,12.55,0,0,0-.3,4.23,7.63,7.63,0,0,0,1.27,3.56,7.18,7.18,0,0,0,3,2.46,11.65,11.65,0,0,0,5,.91,11.29,11.29,0,0,0,4.07-.69,8.58,8.58,0,0,0,3.06-2A11.25,11.25,0,0,0,142,49.32a20.24,20.24,0,0,0,1.38-4.14l2.45-10.67A10.14,10.14,0,0,0,145.95,30.57Zm-6.46,3.14-2.71,11.91a4.68,4.68,0,0,1-1.33,2.44,3.32,3.32,0,0,1-2.33.89,3.09,3.09,0,0,1-2.69-1.09,4,4,0,0,1-.31-3.21l2.56-11.2a5.28,5.28,0,0,1,.37-1.13,4.21,4.21,0,0,1,.73-1.11A3.57,3.57,0,0,1,136.56,30a3.08,3.08,0,0,1,1.6.38,2.66,2.66,0,0,1,1,1,2.92,2.92,0,0,1,.4,1.19A3.65,3.65,0,0,1,139.49,33.71Zm27.13-9.65-4,18.24h-.18a7.07,7.07,0,0,0-.32-1.64q-.34-1.24-.75-2.63l-.77-2.61a11.62,11.62,0,0,1-.39-1.57l-2.71-9.78h-5.58l-7.06,30.81h6.29l3.93-17.31h.13l1.76,6.6,3.3,10.71h5.53l7.06-30.81Zm10.69,0-7.06,30.81h6.33l7.05-30.81Zm20.05,0H188.2l-7.06,30.81h9.3a17.49,17.49,0,0,0,4.44-.57,11.78,11.78,0,0,0,3.94-1.84,10,10,0,0,0,2.88-3.3,10.85,10.85,0,0,0,1.24-5,7.26,7.26,0,0,0-.58-3.16,4,4,0,0,0-2.26-2.15c0-.06,0-.1,0-.11a.17.17,0,0,0,0-.11,6.87,6.87,0,0,0,3.7-2.94,9.77,9.77,0,0,0,1.28-4.67,6.42,6.42,0,0,0-1.81-5.22Q201.4,24.06,197.37,24.06ZM196.2,45.93a5.08,5.08,0,0,1-.85,1.53A4.13,4.13,0,0,1,192.07,49h-3.32l1.67-7.26h3.5a2.64,2.64,0,0,1,2,.69,2.47,2.47,0,0,1,.62,1.88A5.52,5.52,0,0,1,196.2,45.93Zm2.43-12.33a4.25,4.25,0,0,1-.82,1.31,3.92,3.92,0,0,1-1.25.91,3.65,3.65,0,0,1-1.56.33h-3.28l1.46-6.24h3.05a3.31,3.31,0,0,1,2.11.53,2,2,0,0,1,.6,1.68A4.4,4.4,0,0,1,198.63,33.6Zm27.71-6.44a7.38,7.38,0,0,0-2.84-2.41,9.54,9.54,0,0,0-4.33-.91,10.86,10.86,0,0,0-4.64.91,10.64,10.64,0,0,0-3.27,2.32,11.92,11.92,0,0,0-2.15,3.17,15.9,15.9,0,0,0-1.18,3.47L205.49,44a12.43,12.43,0,0,0-.3,4.23,7.69,7.69,0,0,0,1.27,3.56,7.16,7.16,0,0,0,3,2.46,11.68,11.68,0,0,0,5,.91,11.27,11.27,0,0,0,4.07-.69,8.58,8.58,0,0,0,3.06-2,11.26,11.26,0,0,0,2.15-3.14,20.24,20.24,0,0,0,1.38-4.14l2.45-10.67a10.14,10.14,0,0,0,.16-3.94A8.34,8.34,0,0,0,226.33,27.16Zm-5.12,6.55-2.72,11.91a4.65,4.65,0,0,1-1.33,2.44,3.31,3.31,0,0,1-2.33.89,3.09,3.09,0,0,1-2.69-1.09,3.94,3.94,0,0,1-.31-3.21l2.56-11.2a5.61,5.61,0,0,1,.37-1.13,4.19,4.19,0,0,1,.72-1.11,3.83,3.83,0,0,1,1.14-.84,3.74,3.74,0,0,1,1.65-.33,3.09,3.09,0,0,1,1.6.38,2.7,2.7,0,0,1,1,1,3.07,3.07,0,0,1,.4,1.19A3.65,3.65,0,0,1,221.21,33.71Zm23.62-9.65L241.3,30.3q-.8,1.46-1.61,3.08t-1.61,3.12h-.27c0-.44-.08-1-.12-1.53s-.08-1.16-.12-1.75-.09-1.18-.14-1.77-.12-1.14-.19-1.64l-.39-2.88q-.17-1.33-.43-2.88h-6.69l3.65,18.46q-.72,3.1-1.43,6.17t-1.44,6.18h6.24l2.83-12.35,12.11-18.46Z"/></g></g></svg>