<svg xmlns="http://www.w3.org/2000/svg" viewBox="0 0 111.32 137.86"><defs><style>.cls-1{fill:#1d1d1b;}.cls-2{fill:#ec6608;}</style></defs><title>Asset 3</title><g id="Layer_2" data-name="Layer 2"><g id="Слой_1" data-name="Слой 1"><path class="cls-1" d="M110.65,47.37a11,11,0,0,0-1.17-2.07h0l-6.71-8.92-.16-.21,0,0h0A10.87,10.87,0,0,0,101,34.57c.91-1.35,1.74-2.66,2.45-3.93,2.8-5,5.62-11.31,2.56-16.55A9.43,9.43,0,0,0,105,12.64h0l-5.9-7.87v0C95.76,0,89.27,0,87.07,0c-.94,0-2,0-3,.12C69,1.19,52.93,4.7,38.13,8.88a11.45,11.45,0,0,0-6.89,5.51c-9.26,17-24,52.91-30,70.13-.72,2.07-2.62,7.57.43,11.85l6.7,8.92h0a8,8,0,0,0,7.06,3.46c-1.43,3.59-3.16,8.6-4,11.65-.71,2.5-.19,4.56,1.27,7.34a42.66,42.66,0,0,0,6.51,8.39c2.53,2.53,5.68,1.94,8.63.38,10.9-5.78,37.59-22.92,61.89-49.58C102.86,72.53,114.24,55.71,110.65,47.37Z"/><path class="cls-2" d="M7.28,85.21c6.17-17.81,20.38-52.13,29.07-68a5.57,5.57,0,0,1,3.36-2.7c17-4.8,33-7.72,44.76-8.56s6.78,10.88,3.38,17.4a129.1,129.1,0,0,1-9.75,15A30.91,30.91,0,0,1,89.6,36C104,36,99.74,50.31,76.67,76.7c-15.44,17.66-42.35,37.24-56,44.68a2.25,2.25,0,0,1-2.21,0c-.54-.38-.68-1.14-.39-2.19,2.26-8,7.84-19.76,11-28.38-6.52.64-13,1.76-17.9,2.21C4.94,93.61,6.13,88.54,7.28,85.21Z"/><path class="cls-1" d="M41.84,54.93c-2.68,7-4.62,12.2-6.36,17.42,16.77-3.77,23.66-8.73,25.22-14.57S54.2,51.07,41.84,54.93Z"/><path class="cls-1" d="M53.88,24.36l-.09.28s-2.12,5.15-5.06,12.47c14.52-3,18.75-7,19.84-9.95C69.53,24.58,68.46,19.33,53.88,24.36Z"/></g></g></svg>