<?xml version="1.0" encoding="UTF-8" standalone="no"?>
<svg
   version="1.1"
   width="144"
   height="75.3787"
   id="svg15"
   viewBox="0 0 144 75.3787"
   sodipodi:docname="df286db825158a195d543ce7dafc9b3e.cdr"
   xmlns:inkscape="http://www.inkscape.org/namespaces/inkscape"
   xmlns:sodipodi="http://sodipodi.sourceforge.net/DTD/sodipodi-0.dtd"
   xmlns:xlink="http://www.w3.org/1999/xlink"
   xmlns="http://www.w3.org/2000/svg"
   xmlns:svg="http://www.w3.org/2000/svg">
  <defs
     id="defs19" />
  <sodipodi:namedview
     id="namedview17"
     pagecolor="#ffffff"
     bordercolor="#666666"
     borderopacity="1.0"
     inkscape:pageshadow="2"
     inkscape:pageopacity="0.0"
     inkscape:pagecheckerboard="0" />
  <g
     id="Layer1000"
     transform="translate(-218.3805,-338.2598)">
    <defs
       id="defs8">
      <linearGradient
         id="grad1">
        <stop
           offset="0%"
           stop-color="#d81c18"
           stop-opacity="1.0000"
           id="stop2" />
        <stop
           offset="100%"
           stop-color="#ffffff"
           stop-opacity="1.0000"
           id="stop4" />
      </linearGradient>
      <linearGradient
         xlink:href="#grad1"
         id="grad2"
         x1="141.5657"
         y1="521.80255"
         x2="141.5657"
         y2="615.15094"
         gradientUnits="userSpaceOnUse"
         gradientTransform="scale(1.5426089,0.64825246)" />
    </defs>
    <path
       d="m 322.574,358.9671 39.8065,39.806 H 341.961 l -29.5965,-29.5965 -11.3983,11.3988 18.1977,18.1977 h -20.4196 l -7.9881,-7.9882 -7.9882,7.9882 h -21.1714 l 18.5739,-18.5738 -11.0221,-11.0227 -29.5959,29.5965 h -21.172 l 50.3912,-50.3911 2.1558,2.1542 19.453,19.4535 31.73,-31.7299 10.5872,10.5841 z"
       style="fill:url(#grad2)"
       id="path10" />
    <path
       d="m 231.0022,413.5404 h -1.9624 v -9.1918 l -3.4021,9.1918 h -1.8644 l -3.4511,-9.1428 v 9.1428 h -1.9299 v -10.9091 h 3.3365 l 2.9247,8.0931 h 0.0682 l 2.8816,-8.0931 h 3.3989 z m 20.0231,-9.0607 h -3.1703 v 9.0607 h -2.0935 v -9.0607 h -3.124 v -1.8484 h 8.3878 z m 10.5964,6.6268 c 0.0112,0.0841 0.0165,0.204 0.0165,0.357 0,0.8829 -0.3437,1.4881 -1.0305,1.8126 -0.5014,0.2425 -1.2644,0.3624 -2.2896,0.3624 -1.5398,0 -2.5432,-0.3 -3.012,-0.9021 -0.4007,-0.5126 -0.6027,-1.5676 -0.6027,-3.1703 0,-1.4094 0.2126,-2.369 0.6352,-2.8784 0.4934,-0.5888 1.4205,-0.8834 2.7835,-0.8834 1.5809,0 2.5895,0.3383 3.0227,1.014 0.3192,0.4907 0.4769,1.5649 0.4769,3.222 h -5.1189 c 0,0.9159 0.0762,1.4967 0.2318,1.7338 0.2286,0.3597 0.7683,0.5397 1.616,0.5397 0.4801,0 0.8233,-0.0602 1.0305,-0.18 0.3053,-0.1743 0.4583,-0.518 0.4583,-1.0273 z m -1.7498,-2.1948 c 0,-0.7523 -0.0981,-1.2372 -0.2942,-1.4556 -0.1966,-0.218 -0.6628,-0.3267 -1.4066,-0.3267 -0.6762,0 -1.1232,0.1199 -1.3412,0.3597 -0.2184,0.2424 -0.3271,0.7166 -0.3271,1.4226 z m 13.8109,1.7339 c 0,1.1882 -0.2345,1.9816 -0.7034,2.3876 -0.4689,0.4038 -1.3741,0.6053 -2.7153,0.6053 -1.3272,0 -2.232,-0.2723 -2.7147,-0.8179 -0.4881,-0.5451 -0.7332,-1.4797 -0.7332,-2.7995 0,-1.5372 0.1854,-2.581 0.5563,-3.1373 0.4795,-0.7087 1.4333,-1.063 2.8618,-1.063 1.3305,0 2.2246,0.1908 2.6823,0.5723 0.455,0.3927 0.6841,1.1232 0.6841,2.1915 h -1.7306 c 0,-0.5888 -0.1146,-0.965 -0.3437,-1.1285 -0.2398,-0.1524 -0.6815,-0.2286 -1.3246,-0.2286 -0.7087,0 -1.145,0.1636 -1.3113,0.4907 -0.1609,0.3378 -0.2424,1.1008 -0.2424,2.2896 0,0.8312 0.0597,1.3656 0.1795,1.6054 0.2073,0.4119 0.6762,0.6186 1.404,0.6186 0.7087,0 1.1669,-0.0927 1.3737,-0.2749 0.2072,-0.1855 0.3111,-0.6245 0.3111,-1.3113 z m 11.9049,2.8948 h -1.8153 v -4.7432 c 0,-0.5888 -0.0815,-0.9921 -0.2478,-1.2101 -0.1966,-0.2616 -0.5834,-0.3927 -1.1615,-0.3927 -0.6757,0 -1.1445,0.1583 -1.4035,0.4743 -0.2616,0.3165 -0.3927,0.8152 -0.3927,1.502 v 4.3697 h -1.7988 v -10.9091 h 1.8153 l 0.016,4.4161 c 0.2808,-0.5126 0.5861,-0.8557 0.9133,-1.0278 0.3298,-0.1663 0.7934,-0.2478 1.3901,-0.2478 0.9405,0 1.622,0.1961 2.0472,0.5914 0.4251,0.3901 0.6377,1.0497 0.6377,1.9763 z m 25.1474,0 h -1.9624 v -9.1918 l -3.4021,9.1918 h -1.8644 l -3.4511,-9.1428 v 9.1428 h -1.9299 v -10.9091 h 3.3366 l 2.9247,8.0931 h 0.0682 l 2.8815,-8.0931 h 3.3989 z m 12.62,-4.0916 c 0,1.6902 -0.2019,2.7915 -0.6026,3.3041 -0.4609,0.5914 -1.4637,0.8856 -3.0121,0.8856 -1.4802,0 -2.4616,-0.3379 -2.9412,-1.014 -0.3735,-0.5232 -0.5589,-1.518 -0.5589,-2.9796 0,-1.5345 0.2344,-2.5592 0.7033,-3.0744 0.4582,-0.5099 1.4504,-0.7662 2.9769,-0.7662 1.3081,0 2.1969,0.2291 2.6684,0.6868 0.5099,0.5019 0.7662,1.4861 0.7662,2.9577 z m -1.8158,0.0331 c 0,-0.957 -0.0981,-1.5788 -0.2915,-1.8649 -0.2073,-0.2696 -0.665,-0.406 -1.3736,-0.406 -0.7961,0 -1.2921,0.131 -1.4914,0.3927 -0.2068,0.2722 -0.3107,0.9377 -0.3107,1.9954 0,1.21 0.0874,1.9571 0.2617,2.2405 0.1747,0.2835 0.6649,0.4252 1.4722,0.4252 0.7438,0 1.2074,-0.1364 1.3901,-0.4118 0.2291,-0.3272 0.3432,-1.1174 0.3432,-2.3711 z m 14.0917,0.1033 c 0,1.4259 -0.1418,2.3962 -0.4226,2.9114 -0.406,0.7385 -1.2457,1.1094 -2.5213,1.1094 -0.5888,0 -1.0518,-0.0821 -1.3902,-0.243 -0.3378,-0.1631 -0.6543,-0.4849 -0.9511,-0.9676 l 0.0517,1.145 h -1.7988 v -10.9091 h 1.7988 v 4.3015 h 0.0656 c 0.2179,-0.4358 0.5067,-0.7358 0.8669,-0.8967 0.3484,-0.1663 0.7902,-0.2478 1.3246,-0.2478 1.2431,0 2.0743,0.3266 2.4888,0.9809 0.324,0.5153 0.4876,1.4531 0.4876,2.816 z m -1.7989,0.2563 c 0,-1.0139 -0.0873,-1.6848 -0.2642,-2.0119 -0.2292,-0.4114 -0.706,-0.6186 -1.4366,-0.6186 -0.7416,0 -1.2297,0.2237 -1.4583,0.6708 -0.1609,0.3266 -0.243,0.9863 -0.243,1.9762 0,0.8531 0.0768,1.42 0.2291,1.7008 0.2265,0.4172 0.7332,0.624 1.5213,0.624 0.7193,0 1.1882,-0.1961 1.4034,-0.5861 0.1663,-0.2968 0.2483,-0.8803 0.2483,-1.7552 z m 8.8578,-5.6234 h -1.7829 v -1.5868 h 1.7829 z m 0,9.3223 h -1.7829 v -7.6381 h 1.7829 z m 7.386,0 h -1.8318 v -10.9091 h 1.8318 z m 12.2759,-2.4339 c 0.0112,0.0841 0.0165,0.204 0.0165,0.357 0,0.8829 -0.3437,1.4881 -1.0305,1.8126 -0.5014,0.2425 -1.2644,0.3624 -2.2896,0.3624 -1.5398,0 -2.5432,-0.3 -3.012,-0.9021 -0.4007,-0.5126 -0.6027,-1.5676 -0.6027,-3.1703 0,-1.4094 0.2126,-2.369 0.6352,-2.8784 0.4934,-0.5888 1.4205,-0.8834 2.7834,-0.8834 1.5809,0 2.5896,0.3383 3.0228,1.014 0.3191,0.4907 0.4769,1.5649 0.4769,3.222 h -5.1189 c 0,0.9159 0.0762,1.4967 0.2318,1.7338 0.2285,0.3597 0.7683,0.5397 1.616,0.5397 0.4801,0 0.8232,-0.0602 1.0305,-0.18 0.3053,-0.1743 0.4583,-0.518 0.4583,-1.0273 z m -1.7498,-2.1948 c 0,-0.7523 -0.0981,-1.2372 -0.2942,-1.4556 -0.1966,-0.218 -0.6628,-0.3267 -1.4066,-0.3267 -0.6762,0 -1.1232,0.1199 -1.3412,0.3597 -0.2184,0.2424 -0.3271,0.7166 -0.3271,1.4226 z"
       style="fill:#1b1918;fill-rule:evenodd"
       id="path12" />
  </g>
</svg>
