<svg width="10" height="15" viewBox="0 0 10 15" fill="none" xmlns="http://www.w3.org/2000/svg">
    <path fill-rule="evenodd" clip-rule="evenodd" d="M6.71755 0.982987L0.165549 7.62599C0.101698 7.69071 0.0567024 7.77161 0.0354016 7.85999C0.0141007 7.94838 0.0173013 8.0409 0.0446589 8.1276C0.0720165 8.2143 0.122496 8.2919 0.190666 8.35205C0.258836 8.41221 0.342117 8.45263 0.431549 8.46899L3.85155 9.08799L1.78055 14.406C1.74702 14.4916 1.74401 14.5862 1.77204 14.6738C1.80007 14.7613 1.85742 14.8366 1.93444 14.8868C2.01145 14.9371 2.10343 14.9593 2.19489 14.9496C2.28634 14.94 2.37168 14.8992 2.43655 14.834L8.97755 8.25399C9.04194 8.18939 9.08744 8.10842 9.10912 8.01982C9.1308 7.93123 9.12783 7.83839 9.10054 7.75136C9.07324 7.66434 9.02267 7.58643 8.95428 7.52608C8.88589 7.46573 8.8023 7.42524 8.71255 7.40899L5.31755 6.79199L7.37555 1.40699C7.40826 1.32127 7.41051 1.2269 7.38191 1.13972C7.35332 1.05254 7.29562 0.977839 7.2185 0.928142C7.14137 0.878444 7.04951 0.856771 6.9583 0.866756C6.86709 0.876742 6.78209 0.917779 6.71755 0.982987Z" fill="#D90000"/>
</svg>
