<svg width="18" height="12" viewBox="0 0 18 12" xmlns="http://www.w3.org/2000/svg">
    <path fill-rule="evenodd" clip-rule="evenodd" d="M14.4802 0.423822C14.1619 0.158649 13.689 0.201642 13.4239 0.51985C13.1587 0.838058 13.2017 1.31098 13.5199 1.57615L14.9285 2.74997H10.1003C8.05253 2.74997 7.1696 5.34589 8.79272 6.59444C9.28058 6.96971 9.01519 7.74997 8.3997 7.74997H5.90549C5.57245 6.45605 4.39788 5.49997 3 5.49997C1.34315 5.49997 0 6.84312 0 8.49997C0 10.1568 1.34315 11.5 3 11.5C4.39788 11.5 5.57245 10.5439 5.90549 9.24997H8.3997C10.4475 9.24997 11.3304 6.65405 9.70728 5.4055C9.21942 5.03022 9.48481 4.24997 10.1003 4.24997H14.9285L13.5199 5.42382C13.2017 5.689 13.1587 6.16192 13.4239 6.48013C13.689 6.79833 14.1619 6.84133 14.4802 6.57615L17.4802 4.07615C17.6512 3.93366 17.75 3.72257 17.75 3.49999C17.75 3.2774 17.6512 3.06632 17.4802 2.92382L14.4802 0.423822ZM3 9.99997C3.82843 9.99997 4.5 9.3284 4.5 8.49997C4.5 7.67154 3.82843 6.99997 3 6.99997C2.17157 6.99997 1.5 7.67154 1.5 8.49997C1.5 9.3284 2.17157 9.99997 3 9.99997Z" fill="white"/>
</svg>
