    <svg xmlns="http://www.w3.org/2000/svg" width={12} height={12}>
            <path
              d="M1050.726,397.191a.264.264,0,0,1,0-.384l4.109-4.11a.53.53,0,0,0,0-.767l-.767-.767a.59.59,0,0,0-.383-.164.5.5,0,0,0-.384.164l-4.109,4.11a.265.265,0,0,1-.384,0l-4.109-4.11a.53.53,0,0,0-.767,0l-.767.767a.53.53,0,0,0,0,.767l4.11,4.11a.265.265,0,0,1,0,.384l-4.11,4.11a.53.53,0,0,0,0,.767l.767.767a.53.53,0,0,0,.767,0l4.109-4.109a.264.264,0,0,1,.384,0l2.848,2.848,1.262,1.262a.53.53,0,0,0,.767,0l.767-.767a.53.53,0,0,0,0-.767Z"
              transform="translate(-1043 -391)"
            />
          </svg>