<svg xmlns="http://www.w3.org/2000/svg" viewBox="0 0 135 40">
    <defs>
        <style>
            .cls-1{fill:none;}.cls-2{fill:#a6a6a6;}.cls-3{clip-path:url(#clip-path);}.cls-4{fill:#fff;}
        </style>
        <clipPath id="clip-path">
            <rect class="cls-1" x="13.39" y="6.45" width="108.22"
                  height="27.1"/>
        </clipPath>
    </defs>
    <title>Asset 2</title>
    <g id="Layer_2" data-name="Layer 2">
        <g id="Layer_1-2" data-name="Layer 1">
            <g id="Layer_2-2" data-name="Layer 2">
                <g id="artwork">
                    <rect width="135" height="40" rx="5" ry="5"/>
                    <path class="cls-2"
                          d="M130,.8A4.2,4.2,0,0,1,134.2,5V35a4.2,4.2,0,0,1-4.2,4.2H5A4.2,4.2,0,0,1,.8,35h0V5A4.2,4.2,0,0,1,5,.8H130m0-.8H5A5,5,0,0,0,0,5V35a5,5,0,0,0,5,5H130a5,5,0,0,0,5-5V5A5,5,0,0,0,130,0Z"/>
                </g>
            </g>
            <g id="Artwork_1" data-name="Artwork 1">
                <g class="cls-3">
                    <g class="cls-3">
                        <path class="cls-4"
                              d="M29.48,19.21A5.38,5.38,0,0,1,32,14.69a5.51,5.51,0,0,0-4.34-2.35c-1.83-.19-3.6,1.09-4.53,1.09s-2.38-1.07-3.92-1a5.78,5.78,0,0,0-4.86,3c-2.1,3.64-.54,9,1.48,11.94,1,1.44,2.19,3.05,3.73,3s2.07-1,3.89-1,2.33,1,3.91.93S30,28.81,31,27.35A11.93,11.93,0,0,0,32.66,24a5.2,5.2,0,0,1-3.17-4.78"/>
                        <path class="cls-4"
                              d="M26.51,10.41a5.3,5.3,0,0,0,1.21-3.8,5.39,5.39,0,0,0-3.49,1.81A5,5,0,0,0,23,12.07a4.46,4.46,0,0,0,3.52-1.66"/>
                        <path class="cls-4"
                              d="M48.55,26.64H43.4l-1.24,3.65H40l4.88-13.5h2.27L52,30.29H49.78ZM43.93,25H48L46,19h-.06Z"/>
                        <path class="cls-4"
                              d="M62.53,25.37c0,3.06-1.64,5-4.11,5a3.34,3.34,0,0,1-3.1-1.72h0v4.88h-2V20.45h2v1.64h0a3.49,3.49,0,0,1,3.14-1.74c2.5,0,4.15,2,4.15,5m-2.08,0c0-2-1-3.3-2.6-3.3s-2.58,1.34-2.58,3.3,1,3.31,2.58,3.31,2.6-1.3,2.6-3.31"/>
                        <path class="cls-4"
                              d="M73.37,25.37c0,3.06-1.64,5-4.11,5a3.34,3.34,0,0,1-3.1-1.72h0v4.88h-2V20.45h2v1.64h0a3.49,3.49,0,0,1,3.14-1.74c2.5,0,4.15,2,4.15,5m-2.08,0c0-2-1-3.3-2.6-3.3s-2.58,1.34-2.58,3.3,1,3.31,2.58,3.31,2.6-1.3,2.6-3.31"/>
                        <path class="cls-4"
                              d="M80.53,26.53c.15,1.34,1.45,2.22,3.23,2.22s2.93-.88,2.93-2.09c0-1-.74-1.68-2.49-2.11l-1.75-.42c-2.48-.6-3.63-1.76-3.63-3.64,0-2.33,2-3.93,4.91-3.93s4.81,1.6,4.88,3.93h-2c-.12-1.35-1.24-2.16-2.87-2.16s-2.74.82-2.74,2c0,1,.71,1.52,2.45,1.95l1.49.37c2.77.66,3.92,1.77,3.92,3.74,0,2.53-2,4.11-5.21,4.11-3,0-5-1.55-5.15-4Z"/>
                        <path class="cls-4"
                              d="M93.18,18.12v2.33h1.87V22H93.18v5.43c0,.84.38,1.24,1.2,1.24a6.18,6.18,0,0,0,.66,0v1.59a5.48,5.48,0,0,1-1.12.09c-2,0-2.77-.75-2.77-2.66V22H89.72v-1.6h1.43V18.12Z"/>
                        <path class="cls-4"
                              d="M96.14,25.37c0-3.1,1.82-5,4.67-5s4.67,1.95,4.67,5-1.81,5-4.67,5-4.67-1.94-4.67-5m7.28,0c0-2.12-1-3.38-2.61-3.38s-2.61,1.26-2.61,3.38,1,3.38,2.61,3.38,2.61-1.24,2.61-3.38"/>
                        <path class="cls-4"
                              d="M107.15,20.45h1.93v1.68h0a2.35,2.35,0,0,1,2.37-1.78,3.09,3.09,0,0,1,.69.08v1.89a2.83,2.83,0,0,0-.91-.12,2,2,0,0,0-2.12,2,2,2,0,0,0,0,.31v5.84h-2Z"/>
                        <path class="cls-4"
                              d="M121.5,27.4c-.27,1.79-2,3-4.24,3-2.86,0-4.64-1.92-4.64-5s1.79-5.09,4.56-5.09,4.44,1.87,4.44,4.86v.69h-7V26A2.56,2.56,0,0,0,117,28.78h.32a2.23,2.23,0,0,0,2.27-1.39Zm-6.83-2.94h4.92a2.37,2.37,0,0,0-2.23-2.5h-.18a2.49,2.49,0,0,0-2.51,2.48Z"/>
                        <path class="cls-4"
                              d="M42.5,9.37h.87a1.09,1.09,0,0,0,1.22-.95s0-.06,0-.09c0-.6-.45-1-1.21-1a1.16,1.16,0,0,0-1.31,1v0h-1a2,2,0,0,1,2.15-1.91h.14c1.28,0,2.18.71,2.18,1.74A1.51,1.51,0,0,1,44.4,9.7v.08a1.51,1.51,0,0,1,1.44,1.57,2.17,2.17,0,0,1-2.38,1.93h0A2.16,2.16,0,0,1,41,11.42v-.08h1c.06.62.63,1,1.47,1s1.39-.45,1.39-1.08-.52-1-1.42-1H42.5Z"/>
                        <path class="cls-4"
                              d="M46.95,11.73c0-.88.66-1.39,1.82-1.46l1.33-.08V9.77c0-.52-.34-.81-1-.81s-.91.2-1,.54h-.94c.1-.84.89-1.38,2-1.38s1.92.61,1.92,1.65v3.35h-.93v-.69H50a1.65,1.65,0,0,1-1.47.77A1.48,1.48,0,0,1,47,11.88a1.33,1.33,0,0,1,0-.15m3.15-.42V10.9L48.9,11c-.67,0-1,.27-1,.71s.38.7.91.7a1.15,1.15,0,0,0,1.26-1Z"/>
                        <polygon class="cls-4"
                                 points="53.62 9.03 53.62 13.11 52.66 13.11 52.66 8.22 55.88 8.22 55.88 9.03 53.62 9.03"/>
                        <path class="cls-4"
                              d="M61.74,10.66c0,1.56-.79,2.53-2,2.53a1.6,1.6,0,0,1-1.51-.82h-.08v2.37h-1V8.22h.93V9h.07a1.7,1.7,0,0,1,1.54-.89c1.25,0,2,1,2,2.53m-1,0c0-1-.49-1.66-1.31-1.66s-1.32.64-1.32,1.66.51,1.66,1.32,1.66,1.31-.63,1.31-1.66"/>
                        <path class="cls-4"
                              d="M63,14.87V14l.32,0a.84.84,0,0,0,.89-.68l.07-.24L62.52,8.22h1.05l1.23,3.89h.08L66.1,8.22h1l-1.82,5.1c-.42,1.19-.88,1.57-1.88,1.57l-.4,0"/>
                        <path class="cls-4"
                              d="M67.88,11.72h1c.09.43.5.66,1.06.66s1-.28,1-.72-.35-.7-1-.7h-.73v-.75h.72c.58,0,.88-.22.88-.63s-.29-.63-.88-.63-.94.23-1,.62H68A1.72,1.72,0,0,1,69.9,8.12c1.16,0,1.83.53,1.83,1.35a1,1,0,0,1-.77,1v.08a1.1,1.1,0,0,1,1,1.1c0,.93-.79,1.55-2,1.55s-1.94-.49-2-1.48"/>
                        <polygon class="cls-4"
                                 points="73.3 13.11 73.3 8.22 74.26 8.22 74.26 11.58 74.34 11.58 76.59 8.22 77.55 8.22 77.55 13.11 76.59 13.11 76.59 9.73 76.52 9.73 74.26 13.11 73.3 13.11"/>
                        <polygon class="cls-4"
                                 points="82.83 9.03 81.29 9.03 81.29 13.11 80.32 13.11 80.32 9.03 78.78 9.03 78.78 8.22 82.83 8.22 82.83 9.03"/>
                        <path class="cls-4"
                              d="M88,11.79a2,2,0,0,1-2.12,1.42A2.22,2.22,0,0,1,83.63,11a2.12,2.12,0,0,1,0-.36,2.26,2.26,0,0,1,1.94-2.54l.32,0c1.36,0,2.19.93,2.19,2.47v.34H84.64V11a1.29,1.29,0,0,0,1.18,1.4h.13a1.18,1.18,0,0,0,1.16-.59Zm-3.4-1.58h2.47A1.18,1.18,0,0,0,86,8.95H85.9a1.25,1.25,0,0,0-1.27,1.23.19.19,0,0,0,0,0Z"/>
                        <path class="cls-4"
                              d="M92.13,8.22h2.21c1,0,1.52.49,1.52,1.25a1.05,1.05,0,0,1-.83,1v.08a1.12,1.12,0,0,1,1,1.13c0,.85-.64,1.41-1.72,1.41H92.13Zm1,.74v1.27h1c.58,0,.86-.23.86-.64S94.67,9,94.16,9Zm0,2v1.43h1.15c.57,0,.88-.25.88-.71s-.35-.72-1-.72Z"/>
                    </g>
                </g>
            </g>
        </g>
    </g>
</svg>